<?xml version="1.0" encoding="UTF-8" standalone="no"?>
<!DOCTYPE svg PUBLIC "-//W3C//DTD SVG 1.1//EN"
 "http://www.w3.org/Graphics/SVG/1.1/DTD/svg11.dtd">
<!-- Generated by graphviz version 2.40.1 (20161225.0304)
 -->
<!-- Title: %0 Pages: 1 -->
<svg width="618pt" height="1546pt"
 viewBox="0.00 0.00 618.28 1546.00" xmlns="http://www.w3.org/2000/svg" xmlns:xlink="http://www.w3.org/1999/xlink">
<g id="graph0" class="graph" transform="scale(1 1) rotate(0) translate(144 1402)">
<title>%0</title>
<polygon fill="#ffffff" stroke="transparent" points="-144,144 -144,-1402 474.2792,-1402 474.2792,144 -144,144"/>
<!-- calendars -->
<g id="node1" class="node">
<title>calendars</title>
<polygon fill="#4477c9" stroke="transparent" points="233.2792,-980 233.2792,-1258 330.2792,-1258 330.2792,-980 233.2792,-980"/>
<polygon fill="#add8e6" stroke="transparent" points="233.7792,-1240 233.7792,-1258 330.7792,-1258 330.7792,-1240 233.7792,-1240"/>
<polygon fill="none" stroke="#000000" points="233.7792,-1240 233.7792,-1258 330.7792,-1258 330.7792,-1240 233.7792,-1240"/>
<text text-anchor="start" x="263.0403" y="-1246.9" font-family="Times,serif" font-weight="bold" font-style="italic" font-size="9.00" fill="#000000"> calendars </text>
<polygon fill="none" stroke="#000000" points="233.7792,-1220 233.7792,-1240 330.7792,-1240 330.7792,-1220 233.7792,-1220"/>
<text text-anchor="start" x="238.7792" y="-1226.9" font-family="Times,serif" font-size="9.00" fill="#000000">desiredDate: String</text>
<polygon fill="none" stroke="#000000" points="233.7792,-1200 233.7792,-1220 330.7792,-1220 330.7792,-1200 233.7792,-1200"/>
<text text-anchor="start" x="238.7792" y="-1206.9" font-family="Times,serif" font-size="9.00" fill="#000000">title: String</text>
<polygon fill="none" stroke="#000000" points="233.7792,-1180 233.7792,-1200 330.7792,-1200 330.7792,-1180 233.7792,-1180"/>
<text text-anchor="start" x="238.7792" y="-1186.9" font-family="Times,serif" font-size="9.00" fill="#000000">desc: String</text>
<polygon fill="none" stroke="#000000" points="233.7792,-1160 233.7792,-1180 330.7792,-1180 330.7792,-1160 233.7792,-1160"/>
<text text-anchor="start" x="238.7792" y="-1166.9" font-family="Times,serif" font-size="9.00" fill="#000000">type: String</text>
<polygon fill="none" stroke="#000000" points="233.7792,-1140 233.7792,-1160 330.7792,-1160 330.7792,-1140 233.7792,-1140"/>
<text text-anchor="start" x="238.7792" y="-1146.9" font-family="Times,serif" font-size="9.00" fill="#000000">address.city: String</text>
<polygon fill="none" stroke="#000000" points="233.7792,-1120 233.7792,-1140 330.7792,-1140 330.7792,-1120 233.7792,-1120"/>
<text text-anchor="start" x="238.7792" y="-1126.9" font-family="Times,serif" font-size="9.00" fill="#000000">address.street: String</text>
<polygon fill="none" stroke="#000000" points="233.7792,-1100 233.7792,-1120 330.7792,-1120 330.7792,-1100 233.7792,-1100"/>
<text text-anchor="start" x="238.2885" y="-1106.9" font-family="Times,serif" font-size="9.00" fill="#000000">address.houseNo: String</text>
<polygon fill="none" stroke="#000000" points="233.7792,-1080 233.7792,-1100 330.7792,-1100 330.7792,-1080 233.7792,-1080"/>
<text text-anchor="start" x="238.7792" y="-1086.9" font-family="Times,serif" font-size="9.00" fill="#000000">isOpen: Boolean</text>
<polygon fill="none" stroke="#000000" points="233.7792,-1060 233.7792,-1080 330.7792,-1080 330.7792,-1060 233.7792,-1060"/>
<text text-anchor="start" x="238.7792" y="-1066.9" font-family="Times,serif" font-size="9.00" fill="#000000">confimed: Boolean</text>
<polygon fill="none" stroke="#000000" points="233.7792,-1040 233.7792,-1060 330.7792,-1060 330.7792,-1040 233.7792,-1040"/>
<text text-anchor="start" x="238.7792" y="-1046.9" font-family="Times,serif" font-size="9.00" fill="#000000">date: String</text>
<polygon fill="none" stroke="#000000" points="233.7792,-1020 233.7792,-1040 330.7792,-1040 330.7792,-1020 233.7792,-1020"/>
<text text-anchor="start" x="238.7792" y="-1026.9" font-family="Times,serif" font-size="9.00" fill="#000000">user: ObjectId</text>
<polygon fill="none" stroke="#000000" points="233.7792,-1000 233.7792,-1020 330.7792,-1020 330.7792,-1000 233.7792,-1000"/>
<text text-anchor="start" x="238.7792" y="-1006.9" font-family="Times,serif" font-size="9.00" fill="#000000">_id: ObjectId</text>
<polygon fill="none" stroke="#000000" points="233.7792,-980 233.7792,-1000 330.7792,-1000 330.7792,-980 233.7792,-980"/>
<text text-anchor="start" x="238.7792" y="-986.9" font-family="Times,serif" font-size="9.00" fill="#000000">__v: Number</text>
</g>
<!-- diets -->
<g id="node2" class="node">
<title>diets</title>
<polygon fill="#4477c9" stroke="transparent" points="245.2792,-730 245.2792,-908 318.2792,-908 318.2792,-730 245.2792,-730"/>
<polygon fill="#add8e6" stroke="transparent" points="245.7792,-890 245.7792,-908 318.7792,-908 318.7792,-890 245.7792,-890"/>
<polygon fill="none" stroke="#000000" points="245.7792,-890 245.7792,-908 318.7792,-908 318.7792,-890 245.7792,-890"/>
<text text-anchor="start" x="271.5305" y="-896.9" font-family="Times,serif" font-weight="bold" font-style="italic" font-size="9.00" fill="#000000"> diets </text>
<polygon fill="none" stroke="#000000" points="245.7792,-870 245.7792,-890 318.7792,-890 318.7792,-870 245.7792,-870"/>
<text text-anchor="start" x="250.7792" y="-876.9" font-family="Times,serif" font-size="9.00" fill="#000000">title: String</text>
<polygon fill="none" stroke="#000000" points="245.7792,-850 245.7792,-870 318.7792,-870 318.7792,-850 245.7792,-850"/>
<text text-anchor="start" x="250.7792" y="-856.9" font-family="Times,serif" font-size="9.00" fill="#000000">desc: String</text>
<polygon fill="none" stroke="#000000" points="245.7792,-830 245.7792,-850 318.7792,-850 318.7792,-830 245.7792,-830"/>
<text text-anchor="start" x="250.7792" y="-836.9" font-family="Times,serif" font-size="9.00" fill="#000000">plan: Array</text>
<polygon fill="none" stroke="#000000" points="245.7792,-810 245.7792,-830 318.7792,-830 318.7792,-810 245.7792,-810"/>
<text text-anchor="start" x="250.4061" y="-816.9" font-family="Times,serif" font-size="9.00" fill="#000000">isPublic: Boolean</text>
<polygon fill="none" stroke="#000000" points="245.7792,-790 245.7792,-810 318.7792,-810 318.7792,-790 245.7792,-790"/>
<text text-anchor="start" x="250.7792" y="-796.9" font-family="Times,serif" font-size="9.00" fill="#000000">users: Array</text>
<polygon fill="none" stroke="#000000" points="245.7792,-770 245.7792,-790 318.7792,-790 318.7792,-770 245.7792,-770"/>
<text text-anchor="start" x="250.7792" y="-776.9" font-family="Times,serif" font-size="9.00" fill="#000000">creator: ObjectId</text>
<polygon fill="none" stroke="#000000" points="245.7792,-750 245.7792,-770 318.7792,-770 318.7792,-750 245.7792,-750"/>
<text text-anchor="start" x="250.7792" y="-756.9" font-family="Times,serif" font-size="9.00" fill="#000000">_id: ObjectId</text>
<polygon fill="none" stroke="#000000" points="245.7792,-730 245.7792,-750 318.7792,-750 318.7792,-730 245.7792,-730"/>
<text text-anchor="start" x="250.7792" y="-736.9" font-family="Times,serif" font-size="9.00" fill="#000000">__v: Number</text>
</g>
<!-- exercises -->
<g id="node3" class="node">
<title>exercises</title>
<polygon fill="#4477c9" stroke="transparent" points="245.2792,-500 245.2792,-658 318.2792,-658 318.2792,-500 245.2792,-500"/>
<polygon fill="#add8e6" stroke="transparent" points="245.7792,-640 245.7792,-658 318.7792,-658 318.7792,-640 245.7792,-640"/>
<polygon fill="none" stroke="#000000" points="245.7792,-640 245.7792,-658 318.7792,-658 318.7792,-640 245.7792,-640"/>
<text text-anchor="start" x="263.5403" y="-646.9" font-family="Times,serif" font-weight="bold" font-style="italic" font-size="9.00" fill="#000000"> exercises </text>
<polygon fill="none" stroke="#000000" points="245.7792,-620 245.7792,-640 318.7792,-640 318.7792,-620 245.7792,-620"/>
<text text-anchor="start" x="250.7792" y="-626.9" font-family="Times,serif" font-size="9.00" fill="#000000">title: String</text>
<polygon fill="none" stroke="#000000" points="245.7792,-600 245.7792,-620 318.7792,-620 318.7792,-600 245.7792,-600"/>
<text text-anchor="start" x="250.7792" y="-606.9" font-family="Times,serif" font-size="9.00" fill="#000000">desc: String</text>
<polygon fill="none" stroke="#000000" points="245.7792,-580 245.7792,-600 318.7792,-600 318.7792,-580 245.7792,-580"/>
<text text-anchor="start" x="250.4052" y="-586.9" font-family="Times,serif" font-size="9.00" fill="#000000">videoLink: String</text>
<polygon fill="none" stroke="#000000" points="245.7792,-560 245.7792,-580 318.7792,-580 318.7792,-560 245.7792,-560"/>
<text text-anchor="start" x="250.7792" y="-566.9" font-family="Times,serif" font-size="9.00" fill="#000000">photos: Array</text>
<polygon fill="none" stroke="#000000" points="245.7792,-540 245.7792,-560 318.7792,-560 318.7792,-540 245.7792,-540"/>
<text text-anchor="start" x="250.7792" y="-546.9" font-family="Times,serif" font-size="9.00" fill="#000000">creator: ObjectId</text>
<polygon fill="none" stroke="#000000" points="245.7792,-520 245.7792,-540 318.7792,-540 318.7792,-520 245.7792,-520"/>
<text text-anchor="start" x="250.7792" y="-526.9" font-family="Times,serif" font-size="9.00" fill="#000000">_id: ObjectId</text>
<polygon fill="none" stroke="#000000" points="245.7792,-500 245.7792,-520 318.7792,-520 318.7792,-500 245.7792,-500"/>
<text text-anchor="start" x="250.7792" y="-506.9" font-family="Times,serif" font-size="9.00" fill="#000000">__v: Number</text>
</g>
<!-- infos -->
<g id="node4" class="node">
<title>infos</title>
<polygon fill="#4477c9" stroke="transparent" points="2.5,-890 2.5,-1128 72.5,-1128 72.5,-890 2.5,-890"/>
<polygon fill="#add8e6" stroke="transparent" points="2.5,-1110 2.5,-1128 72.5,-1128 72.5,-1110 2.5,-1110"/>
<polygon fill="none" stroke="#000000" points="2.5,-1110 2.5,-1128 72.5,-1128 72.5,-1110 2.5,-1110"/>
<text text-anchor="start" x="26.2514" y="-1116.9" font-family="Times,serif" font-weight="bold" font-style="italic" font-size="9.00" fill="#000000"> infos </text>
<polygon fill="none" stroke="#000000" points="2.5,-1090 2.5,-1110 72.5,-1110 72.5,-1090 2.5,-1090"/>
<text text-anchor="start" x="7.5" y="-1096.9" font-family="Times,serif" font-size="9.00" fill="#000000">company: String</text>
<polygon fill="none" stroke="#000000" points="2.5,-1070 2.5,-1090 72.5,-1090 72.5,-1070 2.5,-1070"/>
<text text-anchor="start" x="7.5" y="-1076.9" font-family="Times,serif" font-size="9.00" fill="#000000">name: String</text>
<polygon fill="none" stroke="#000000" points="2.5,-1050 2.5,-1070 72.5,-1070 72.5,-1050 2.5,-1050"/>
<text text-anchor="start" x="7.5" y="-1056.9" font-family="Times,serif" font-size="9.00" fill="#000000">surname: String</text>
<polygon fill="none" stroke="#000000" points="2.5,-1030 2.5,-1050 72.5,-1050 72.5,-1030 2.5,-1030"/>
<text text-anchor="start" x="7.5" y="-1036.9" font-family="Times,serif" font-size="9.00" fill="#000000">phone: String</text>
<polygon fill="none" stroke="#000000" points="2.5,-1010 2.5,-1030 72.5,-1030 72.5,-1010 2.5,-1010"/>
<text text-anchor="start" x="7.5" y="-1016.9" font-family="Times,serif" font-size="9.00" fill="#000000">email: String</text>
<polygon fill="none" stroke="#000000" points="2.5,-990 2.5,-1010 72.5,-1010 72.5,-990 2.5,-990"/>
<text text-anchor="start" x="7.5" y="-996.9" font-family="Times,serif" font-size="9.00" fill="#000000">city: String</text>
<polygon fill="none" stroke="#000000" points="2.5,-970 2.5,-990 72.5,-990 72.5,-970 2.5,-970"/>
<text text-anchor="start" x="7.1245" y="-976.9" font-family="Times,serif" font-size="9.00" fill="#000000">postCode: String</text>
<polygon fill="none" stroke="#000000" points="2.5,-950 2.5,-970 72.5,-970 72.5,-950 2.5,-950"/>
<text text-anchor="start" x="7.5" y="-956.9" font-family="Times,serif" font-size="9.00" fill="#000000">street: String</text>
<polygon fill="none" stroke="#000000" points="2.5,-930 2.5,-950 72.5,-950 72.5,-930 2.5,-930"/>
<text text-anchor="start" x="7.5" y="-936.9" font-family="Times,serif" font-size="9.00" fill="#000000">houseNo: String</text>
<polygon fill="none" stroke="#000000" points="2.5,-910 2.5,-930 72.5,-930 72.5,-910 2.5,-910"/>
<text text-anchor="start" x="7.5" y="-916.9" font-family="Times,serif" font-size="9.00" fill="#000000">_id: ObjectId</text>
<polygon fill="none" stroke="#000000" points="2.5,-890 2.5,-910 72.5,-910 72.5,-890 2.5,-890"/>
<text text-anchor="start" x="7.5" y="-896.9" font-family="Times,serif" font-size="9.00" fill="#000000">__v: Number</text>
</g>
<!-- posts -->
<g id="node5" class="node">
<title>posts</title>
<polygon fill="#4477c9" stroke="transparent" points="245.2792,-250 245.2792,-428 318.2792,-428 318.2792,-250 245.2792,-250"/>
<polygon fill="#add8e6" stroke="transparent" points="245.7792,-410 245.7792,-428 318.7792,-428 318.7792,-410 245.7792,-410"/>
<polygon fill="none" stroke="#000000" points="245.7792,-410 245.7792,-428 318.7792,-428 318.7792,-410 245.7792,-410"/>
<text text-anchor="start" x="270.7785" y="-416.9" font-family="Times,serif" font-weight="bold" font-style="italic" font-size="9.00" fill="#000000"> posts </text>
<polygon fill="none" stroke="#000000" points="245.7792,-390 245.7792,-410 318.7792,-410 318.7792,-390 245.7792,-390"/>
<text text-anchor="start" x="250.7792" y="-396.9" font-family="Times,serif" font-size="9.00" fill="#000000">title: String</text>
<polygon fill="none" stroke="#000000" points="245.7792,-370 245.7792,-390 318.7792,-390 318.7792,-370 245.7792,-370"/>
<text text-anchor="start" x="250.7792" y="-376.9" font-family="Times,serif" font-size="9.00" fill="#000000">desc: String</text>
<polygon fill="none" stroke="#000000" points="245.7792,-350 245.7792,-370 318.7792,-370 318.7792,-350 245.7792,-350"/>
<text text-anchor="start" x="250.4052" y="-356.9" font-family="Times,serif" font-size="9.00" fill="#000000">videoLink: String</text>
<polygon fill="none" stroke="#000000" points="245.7792,-330 245.7792,-350 318.7792,-350 318.7792,-330 245.7792,-330"/>
<text text-anchor="start" x="250.7792" y="-336.9" font-family="Times,serif" font-size="9.00" fill="#000000">photos: Array</text>
<polygon fill="none" stroke="#000000" points="245.7792,-310 245.7792,-330 318.7792,-330 318.7792,-310 245.7792,-310"/>
<text text-anchor="start" x="250.7792" y="-316.9" font-family="Times,serif" font-size="9.00" fill="#000000">date: Date</text>
<polygon fill="none" stroke="#000000" points="245.7792,-290 245.7792,-310 318.7792,-310 318.7792,-290 245.7792,-290"/>
<text text-anchor="start" x="250.7792" y="-296.9" font-family="Times,serif" font-size="9.00" fill="#000000">user: ObjectId</text>
<polygon fill="none" stroke="#000000" points="245.7792,-270 245.7792,-290 318.7792,-290 318.7792,-270 245.7792,-270"/>
<text text-anchor="start" x="250.7792" y="-276.9" font-family="Times,serif" font-size="9.00" fill="#000000">_id: ObjectId</text>
<polygon fill="none" stroke="#000000" points="245.7792,-250 245.7792,-270 318.7792,-270 318.7792,-250 245.7792,-250"/>
<text text-anchor="start" x="250.7792" y="-256.9" font-family="Times,serif" font-size="9.00" fill="#000000">__v: Number</text>
</g>
<!-- users -->
<g id="node6" class="node">
<title>users</title>
<polygon fill="#4477c9" stroke="transparent" points="0,-520 0,-818 75,-818 75,-520 0,-520"/>
<polygon fill="#add8e6" stroke="transparent" points=".5,-800 .5,-818 75.5,-818 75.5,-800 .5,-800"/>
<polygon fill="none" stroke="#000000" points=".5,-800 .5,-818 75.5,-818 75.5,-800 .5,-800"/>
<text text-anchor="start" x="26.5043" y="-806.9" font-family="Times,serif" font-weight="bold" font-style="italic" font-size="9.00" fill="#000000"> users </text>
<polygon fill="none" stroke="#000000" points=".5,-780 .5,-800 75.5,-800 75.5,-780 .5,-780"/>
<text text-anchor="start" x="5.5" y="-786.9" font-family="Times,serif" font-size="9.00" fill="#000000">login: String</text>
<polygon fill="none" stroke="#000000" points=".5,-760 .5,-780 75.5,-780 75.5,-760 .5,-760"/>
<text text-anchor="start" x="5.5" y="-766.9" font-family="Times,serif" font-size="9.00" fill="#000000">pass: String</text>
<polygon fill="none" stroke="#000000" points=".5,-740 .5,-760 75.5,-760 75.5,-740 .5,-740"/>
<text text-anchor="start" x="5.5" y="-746.9" font-family="Times,serif" font-size="9.00" fill="#000000">name: String</text>
<polygon fill="none" stroke="#000000" points=".5,-720 .5,-740 75.5,-740 75.5,-720 .5,-720"/>
<text text-anchor="start" x="5.5" y="-726.9" font-family="Times,serif" font-size="9.00" fill="#000000">surname: String</text>
<polygon fill="none" stroke="#000000" points=".5,-700 .5,-720 75.5,-720 75.5,-700 .5,-700"/>
<text text-anchor="start" x="5.5" y="-706.9" font-family="Times,serif" font-size="9.00" fill="#000000">email: String</text>
<polygon fill="none" stroke="#000000" points=".5,-680 .5,-700 75.5,-700 75.5,-680 .5,-680"/>
<text text-anchor="start" x="5.5" y="-686.9" font-family="Times,serif" font-size="9.00" fill="#000000">phone: String</text>
<polygon fill="none" stroke="#000000" points=".5,-660 .5,-680 75.5,-680 75.5,-660 .5,-660"/>
<text text-anchor="start" x="5.5" y="-666.9" font-family="Times,serif" font-size="9.00" fill="#000000">joinDate: Date</text>
<polygon fill="none" stroke="#000000" points=".5,-640 .5,-660 75.5,-660 75.5,-640 .5,-640"/>
<text text-anchor="start" x="5.5" y="-646.9" font-family="Times,serif" font-size="9.00" fill="#000000">lastOnline: Date</text>
<polygon fill="none" stroke="#000000" points=".5,-620 .5,-640 75.5,-640 75.5,-620 .5,-620"/>
<text text-anchor="start" x="5.5" y="-626.9" font-family="Times,serif" font-size="9.00" fill="#000000">blocked: Boolean</text>
<polygon fill="none" stroke="#000000" points=".5,-600 .5,-620 75.5,-620 75.5,-600 .5,-600"/>
<text text-anchor="start" x="5.1275" y="-606.9" font-family="Times,serif" font-size="9.00" fill="#000000">isAdmin: Boolean</text>
<polygon fill="none" stroke="#000000" points=".5,-580 .5,-600 75.5,-600 75.5,-580 .5,-580"/>
<text text-anchor="start" x="5.5" y="-586.9" font-family="Times,serif" font-size="9.00" fill="#000000">workouts: Array</text>
<polygon fill="none" stroke="#000000" points=".5,-560 .5,-580 75.5,-580 75.5,-560 .5,-560"/>
<text text-anchor="start" x="5.5" y="-566.9" font-family="Times,serif" font-size="9.00" fill="#000000">diets: Array</text>
<polygon fill="none" stroke="#000000" points=".5,-540 .5,-560 75.5,-560 75.5,-540 .5,-540"/>
<text text-anchor="start" x="5.5" y="-546.9" font-family="Times,serif" font-size="9.00" fill="#000000">_id: ObjectId</text>
<polygon fill="none" stroke="#000000" points=".5,-520 .5,-540 75.5,-540 75.5,-520 .5,-520"/>
<text text-anchor="start" x="5.5" y="-526.9" font-family="Times,serif" font-size="9.00" fill="#000000">__v: Number</text>
</g>
<!-- users&#45;&gt;calendars -->
<g id="edge1" class="edge">
<title>users:12&#45;&gt;calendars:10</title>
<path fill="none" stroke="#000000" stroke-dasharray="5,2" d="M75,-550C122.1284,-550 97.1633,-713.9485 111,-759 149.8218,-885.402 101.5499,-1030 233.7792,-1030"/>
<text text-anchor="middle" x="154.1396" y="-1028.2" font-family="Times,serif" font-size="14.00" fill="#000000">users&#45;calendars</text>
<text text-anchor="middle" x="228.7259" y="-1017.4" font-family="Times,serif" font-size="14.00" fill="#000000">N</text>
<text text-anchor="middle" x="78.5" y="-537.4" font-family="Times,serif" font-size="14.00" fill="#000000">1</text>
</g>
<!-- users&#45;&gt;diets -->
<g id="edge2" class="edge">
<title>users:12&#45;&gt;diets:5</title>
<path fill="none" stroke="#000000" stroke-dasharray="5,2" d="M75,-550C106.8301,-550 213.9491,-780 245.7792,-780"/>
<text text-anchor="middle" x="154.1396" y="-728.2" font-family="Times,serif" font-size="14.00" fill="#000000">users&#45;diets</text>
<text text-anchor="middle" x="240.7259" y="-784.2" font-family="Times,serif" font-size="14.00" fill="#000000">N</text>
<text text-anchor="middle" x="78.5" y="-554.2" font-family="Times,serif" font-size="14.00" fill="#000000">1</text>
</g>
<!-- users&#45;&gt;exercises -->
<g id="edge3" class="edge">
<title>users:12&#45;&gt;exercises:4</title>
<path fill="none" stroke="#000000" stroke-dasharray="5,2" d="M75,-550C150.9019,-550 169.8773,-550 245.7792,-550"/>
<text text-anchor="middle" x="154.1396" y="-554.2" font-family="Times,serif" font-size="14.00" fill="#000000">users&#45;exercises</text>
<text text-anchor="middle" x="240.7259" y="-554.2" font-family="Times,serif" font-size="14.00" fill="#000000">N</text>
<text text-anchor="middle" x="71.5" y="-554.2" font-family="Times,serif" font-size="14.00" fill="#000000">1</text>
</g>
<!-- users&#45;&gt;posts -->
<g id="edge4" class="edge">
<title>users:12&#45;&gt;posts:5</title>
<path fill="none" stroke="#000000" stroke-dasharray="5,2" d="M75,-550C108.6404,-550 212.1388,-300 245.7792,-300"/>
<text text-anchor="middle" x="154.1396" y="-512.2" font-family="Times,serif" font-size="14.00" fill="#000000">users&#45;posts</text>
<text text-anchor="middle" x="240.7259" y="-304.2" font-family="Times,serif" font-size="14.00" fill="#000000">N</text>
<text text-anchor="middle" x="78.5" y="-554.2" font-family="Times,serif" font-size="14.00" fill="#000000">1</text>
</g>
<!-- workouts -->
<g id="node7" class="node">
<title>workouts</title>
<polygon fill="#4477c9" stroke="transparent" points="245.2792,0 245.2792,-178 318.2792,-178 318.2792,0 245.2792,0"/>
<polygon fill="#add8e6" stroke="transparent" points="245.7792,-160 245.7792,-178 318.7792,-178 318.7792,-160 245.7792,-160"/>
<polygon fill="none" stroke="#000000" points="245.7792,-160 245.7792,-178 318.7792,-178 318.7792,-160 245.7792,-160"/>
<text text-anchor="start" x="263.282" y="-166.9" font-family="Times,serif" font-weight="bold" font-style="italic" font-size="9.00" fill="#000000"> workouts </text>
<polygon fill="none" stroke="#000000" points="245.7792,-140 245.7792,-160 318.7792,-160 318.7792,-140 245.7792,-140"/>
<text text-anchor="start" x="250.7792" y="-146.9" font-family="Times,serif" font-size="9.00" fill="#000000">title: String</text>
<polygon fill="none" stroke="#000000" points="245.7792,-120 245.7792,-140 318.7792,-140 318.7792,-120 245.7792,-120"/>
<text text-anchor="start" x="250.7792" y="-126.9" font-family="Times,serif" font-size="9.00" fill="#000000">desc: String</text>
<polygon fill="none" stroke="#000000" points="245.7792,-100 245.7792,-120 318.7792,-120 318.7792,-100 245.7792,-100"/>
<text text-anchor="start" x="250.7792" y="-106.9" font-family="Times,serif" font-size="9.00" fill="#000000">plan: Array</text>
<polygon fill="none" stroke="#000000" points="245.7792,-80 245.7792,-100 318.7792,-100 318.7792,-80 245.7792,-80"/>
<text text-anchor="start" x="250.4061" y="-86.9" font-family="Times,serif" font-size="9.00" fill="#000000">isPublic: Boolean</text>
<polygon fill="none" stroke="#000000" points="245.7792,-60 245.7792,-80 318.7792,-80 318.7792,-60 245.7792,-60"/>
<text text-anchor="start" x="250.7792" y="-66.9" font-family="Times,serif" font-size="9.00" fill="#000000">users: Array</text>
<polygon fill="none" stroke="#000000" points="245.7792,-40 245.7792,-60 318.7792,-60 318.7792,-40 245.7792,-40"/>
<text text-anchor="start" x="250.7792" y="-46.9" font-family="Times,serif" font-size="9.00" fill="#000000">creator: ObjectId</text>
<polygon fill="none" stroke="#000000" points="245.7792,-20 245.7792,-40 318.7792,-40 318.7792,-20 245.7792,-20"/>
<text text-anchor="start" x="250.7792" y="-26.9" font-family="Times,serif" font-size="9.00" fill="#000000">_id: ObjectId</text>
<polygon fill="none" stroke="#000000" points="245.7792,0 245.7792,-20 318.7792,-20 318.7792,0 245.7792,0"/>
<text text-anchor="start" x="250.7792" y="-6.9" font-family="Times,serif" font-size="9.00" fill="#000000">__v: Number</text>
</g>
<!-- users&#45;&gt;workouts -->
<g id="edge5" class="edge">
<title>users:12&#45;&gt;workouts:5</title>
<path fill="none" stroke="#000000" stroke-dasharray="5,2" d="M75,-550C125.5921,-550 95.706,-373.425 111,-325.2 152.1707,-195.3801 109.5873,-50 245.7792,-50"/>
<text text-anchor="middle" x="154.1396" y="-329.2" font-family="Times,serif" font-size="14.00" fill="#000000">users&#45;workouts</text>
<text text-anchor="middle" x="240.7259" y="-37.4" font-family="Times,serif" font-size="14.00" fill="#000000">N</text>
<text text-anchor="middle" x="71.5" y="-537.4" font-family="Times,serif" font-size="14.00" fill="#000000">1</text>
</g>
</g>
</svg>
